Coordinates
version=1
nRows=8
nColumns=40
inDegrees=yes

Units are S.I. units (second, meters, Newtons, ...)
Angles are in degrees.

endheader
time	pelvis_tilt	pelvis_list	pelvis_rotation	pelvis_tx	pelvis_ty	pelvis_tz	hip_flexion_r	hip_adduction_r	hip_rotation_r	knee_angle_r	knee_angle_r_beta	ankle_angle_r	subtalar_angle_r	mtp_angle_r	hip_flexion_l	hip_adduction_l	hip_rotation_l	knee_angle_l	knee_angle_l_beta	ankle_angle_l	subtalar_angle_l	mtp_angle_l	lumbar_extension	lumbar_bending	lumbar_rotation	arm_flex_r	arm_add_r	arm_rot_r	elbow_flex_r	pro_sup_r	wrist_flex_r	wrist_dev_r	arm_flex_l	arm_add_l	arm_rot_l	elbow_flex_l	pro_sup_l	wrist_flex_l	wrist_dev_l
     52.13250000	     -4.62441632	     -5.07641233	     -1.01870877	      0.95098735	      0.92895465	      0.41847013	     43.82166049	     -4.73623588	     -4.42166510	     80.77181067	     80.77181067	      3.89040402	    -17.96798794	      4.71712792	     16.98877114	     -6.42287969	     -5.34128987	     24.49892189	     24.49892189	     13.99174537	    -11.74406590	      0.09553024	    -13.93151833	      4.16432018	      1.40142141	      9.02554199	    -14.47949779	     -2.38174610	     81.24871479	     45.35411086	      0.00000000	      0.00000000	     14.09527286	    -16.87111416	      4.68750710	     52.88617580	     46.09625680	      0.00000000	      0.00000000
     52.14357143	     -4.54936705	     -5.07128675	     -1.05864478	      0.95084879	      0.92922415	      0.41845441	     44.56399214	     -4.72494622	     -4.45520849	     79.38145036	     79.38145036	      3.85575116	    -17.75433818	      4.57465667	     16.18191670	     -6.42845480	     -5.54371467	     24.19185134	     24.19185134	     14.35087871	    -11.42692514	     -0.08713783	    -14.00469866	      4.18543158	      1.60454406	      7.91955680	    -14.33601453	     -3.37275139	     75.85479641	     45.54815793	      0.00000000	      0.00000000	     15.64545863	    -17.09588739	      3.93412239	     55.13956037	     46.24330452	      0.00000000	      0.00000000
     52.15464286	     -4.49605849	     -5.02552366	     -1.10117620	      0.95083418	      0.92941814	      0.41846571	     45.13232411	     -4.79016540	     -4.55862410	     77.62677869	     77.62677869	      3.82792535	    -17.57724694	      4.38412760	     15.34672220	     -6.37241075	     -5.70919757	     23.80469009	     23.80469009	     14.69523128	    -11.17673756	     -0.24950871	    -14.06328258	      4.16734215	      1.63062864	      7.15404766	    -14.22589480	     -3.91123610	     70.17809082	     45.73128083	      0.00000000	      0.00000000	     16.78466358	    -17.41190718	      2.95207831	     58.08314234	     46.41714923	      0.00000000	      0.00000000
     52.16571429	     -4.46160230	     -4.95384420	     -1.18452891	      0.95092914	      0.92957479	      0.41852907	     45.51771222	     -4.89418523	     -4.72243743	     75.50160545	     75.50160545	      3.88115298	    -17.41187605	      4.45594974	     14.47874593	     -6.28719923	     -5.90284626	     23.34326330	     23.34326330	     15.01090271	    -10.98773027	     -0.32759933	    -14.18837808	      4.13575989	      2.40024991	      5.39281747	    -14.91649304	     -3.97270222	     66.47404178	     45.84287618	      0.00000000	      0.00000000	     18.55940689	    -17.16090656	      2.39294246	     60.42487711	     46.52107507	      0.00000000	      0.00000000
     52.17678571	     -4.51826779	     -4.85394993	     -1.22930243	      0.95114213	      0.92963826	      0.41854747	     45.75209349	     -5.08609417	     -5.01166943	     72.94829181	     72.94829181	      3.81588714	    -17.32703749	      4.17073751	     13.69116607	     -6.16310924	     -6.09823116	     22.84097681	     22.84097681	     15.24832602	    -10.69844642	     -0.61148666	    -14.03647580	      4.07916815	      1.86213174	      5.88512244	    -14.25153859	     -4.75473395	     58.66919629	     46.10936521	      0.00000000	      0.00000000	     18.95141519	    -17.84744090	      1.29574743	     64.07667393	     46.70022657	      0.00000000	      0.00000000
     52.18785714	     -4.54685549	     -4.69169462	     -1.30038573	      0.95150969	      0.92966267	      0.41860147	     45.72709223	     -5.30989089	     -5.32490944	     70.00936540	     70.00936540	      3.79687082	    -17.30363473	      3.84223593	     12.79714744	     -5.94464691	     -6.23886252	     22.22349627	     22.22349627	     15.46912435	    -10.54910325	     -0.82637185	    -13.99137887	      3.96424109	      1.63882206	      5.78524471	    -14.30001521	     -4.41840197	     52.45065702	     46.26150572	      0.00000000	      0.00000000	     19.46036957	    -18.03515179	     -0.26475696	     67.80235620	     46.92639825	      0.00000000	      0.00000000
     52.19892857	     -4.58384139	     -4.52009027	     -1.38154743	      0.95199901	      0.92960356	      0.41868519	     45.48278636	     -5.53914756	     -5.73498482	     66.70329321	     66.70329321	      3.99679447	    -17.18467421	      3.99787840	     11.88752851	     -5.71851466	     -6.42186611	     21.57837789	     21.57837789	     15.75068303	    -10.33683590	     -0.87884633	    -14.00197748	      3.88509078	      2.53214025	      3.90298999	    -15.02551037	     -4.24490397	     49.43958178	     46.34009427	      0.00000000	      0.00000000	     21.07081651	    -17.55520881	     -0.73282983	     70.30503622	     47.02204935	      0.00000000	      0.00000000
     52.21000000	     -4.72935866	     -4.29618987	     -1.40938433	      0.95262386	      0.92925573	      0.41884669	     45.07989787	     -5.80684046	     -6.22322892	     62.95276785	     62.95276785	      3.94411260	    -17.11258025	      3.20797871	     11.12267066	     -5.44757420	     -6.58061462	     20.97870481	     20.97870481	     15.93526232	    -10.07343172	     -1.32102928	    -13.76071612	      3.70056763	      2.08547094	      4.48334251	    -14.73426451	     -4.36442532	     41.93759840	     46.57542466	      0.00000000	      0.00000000	     21.29160575	    -18.20807808	     -1.48479892	     74.24780818	     47.18143915	      0.00000000	      0.00000000
